<?xml version="1.0" standalone="no"?><!DOCTYPE svg PUBLIC "-//W3C//DTD SVG 1.1//EN" "http://www.w3.org/Graphics/SVG/1.1/DTD/svg11.dtd"><svg t="1714113390729" class="icon" viewBox="0 0 1024 1024" version="1.1" xmlns="http://www.w3.org/2000/svg" p-id="3913" xmlns:xlink="http://www.w3.org/1999/xlink" width="200" height="200"><path d="M533.568 43.456a28.16 28.16 0 0 0-43.264 0L134.272 449.024c-11.84 13.504-6.656 24.64 11.648 24.64h133.12c18.304 0 33.28 14.592 33.28 32.512v259.84c0 17.92 14.912 32.512 33.28 32.512h332.672c18.304 0 33.28-14.592 33.28-32.448V506.176c0-17.92 14.976-32.512 33.28-32.512h133.12c18.304 0 23.488-11.136 11.584-24.64L533.568 43.52zM445.376 928.512c0 35.904-29.76 64.96-66.56 64.96-36.736 0-66.56-29.056-66.56-64.96 0-35.904 29.824-64.96 66.56-64.96 36.8 0 66.56 29.056 66.56 64.96z m266.176 0c0 35.904-29.76 64.96-66.56 64.96s-66.56-29.056-66.56-64.96c0-35.904 29.76-64.96 66.56-64.96s66.56 29.056 66.56 64.96z m-332.736-64.96h266.24v129.92h-266.24v-129.92z" fill="#F07373" p-id="3914"></path></svg>