<?xml version="1.0" standalone="no"?><!DOCTYPE svg PUBLIC "-//W3C//DTD SVG 1.1//EN" "http://www.w3.org/Graphics/SVG/1.1/DTD/svg11.dtd"><svg t="1714113537211" class="icon" viewBox="0 0 1024 1024" version="1.1" xmlns="http://www.w3.org/2000/svg" p-id="5871" xmlns:xlink="http://www.w3.org/1999/xlink" width="200" height="200"><path d="M490.432 980.544a28.16 28.16 0 0 0 43.264 0l356.032-405.568c11.84-13.504 6.656-24.64-11.648-24.64h-133.12a32.96 32.96 0 0 1-33.28-32.512v-259.84a32.96 32.96 0 0 0-33.28-32.512H345.792a32.96 32.96 0 0 0-33.28 32.448v259.904c0 17.92-14.976 32.512-33.28 32.512h-133.12c-18.304 0-23.488 11.136-11.584 24.64l355.968 405.568zM578.624 95.488c0-35.904 29.76-64.96 66.56-64.96 36.736 0 66.56 29.056 66.56 64.96 0 35.904-29.824 64.96-66.56 64.96-36.8 0-66.56-29.056-66.56-64.96z m-266.176 0c0-35.904 29.76-64.96 66.56-64.96s66.56 29.056 66.56 64.96c0 35.904-29.76 64.96-66.56 64.96s-66.56-29.056-66.56-64.96z m332.736 64.96H378.88V30.528h266.24v129.92z" fill="#52C41A" fill-opacity=".85" p-id="5872"></path></svg>