<?xml version="1.0" standalone="no"?><!DOCTYPE svg PUBLIC "-//W3C//DTD SVG 1.1//EN" "http://www.w3.org/Graphics/SVG/1.1/DTD/svg11.dtd"><svg t="1714120128715" class="icon" viewBox="0 0 1024 1024" version="1.1" xmlns="http://www.w3.org/2000/svg" p-id="2264" xmlns:xlink="http://www.w3.org/1999/xlink" width="200" height="200"><path d="M512 0a512 512 0 1 0 512 512A512 512 0 0 0 512 0z m0 955.733A443.733 443.733 0 1 1 955.733 512 443.733 443.733 0 0 1 512 955.733z" fill="#1afa29" p-id="2265"></path><path d="M753.323 318.805L439.637 632.491l-168.96-168.619A34.133 34.133 0 1 0 222.208 512l193.195 193.195a34.133 34.133 0 0 0 48.128 0l337.92-337.92a34.133 34.133 0 1 0-48.128-48.128z" fill="#1afa29" p-id="2266"></path></svg>